<svg viewBox="0 0 52 26" xmlns="http://www.w3.org/2000/svg">
  <!-- Star Glasses for Fish -->
  
  <!-- Left star lens -->
  <polygon points="12,2 14,9 22,9 16,14 18,22 12,17 6,22 8,14 2,9 10,9" 
           fill="#ffd700" stroke="#ff9800" stroke-width="1"/>
  <polygon points="12,6 13,9 16,9 13.5,11 14.5,15 12,13 9.5,15 10.5,11 8,9 11,9" 
           fill="#fff59d" opacity="0.5"/>
  
  <!-- Right star lens -->
  <polygon points="40,2 42,9 50,9 44,14 46,22 40,17 34,22 36,14 30,9 38,9" 
           fill="#ffd700" stroke="#ff9800" stroke-width="1"/>
  <polygon points="40,6 41,9 44,9 41.5,11 42.5,15 40,13 37.5,15 38.5,11 36,9 39,9" 
           fill="#fff59d" opacity="0.5"/>
  
  <!-- Bridge -->
  <path d="M 22 12 Q 26 8 30 12" stroke="#ff9800" stroke-width="2" fill="none"/>
  
  <!-- Sparkle effects -->
  <circle cx="8" cy="6" r="1" fill="white" opacity="0.8"/>
  <circle cx="36" cy="6" r="1" fill="white" opacity="0.8"/>
</svg>

