<svg viewBox="0 0 64 64" width="64" height="64" xmlns="http://www.w3.org/2000/svg">
  <!-- Rounded body -->
  <path d="M20 32 C30 22 45 22 55 32 C45 42 30 42 20 32" fill="#FF0000" stroke="#000000" stroke-width="1"/>
  <!-- White stripes -->
  <path d="M25 25 L25 39 L28 39 L28 25 Z" fill="#FFFFFF" stroke="#000000" stroke-width="1"/>
  <path d="M35 25 L35 39 L38 39 L38 25 Z" fill="#FFFFFF" stroke="#000000" stroke-width="1"/>
  <path d="M45 25 L45 39 L48 39 L48 25 Z" fill="#FFFFFF" stroke="#000000" stroke-width="1"/>
  <!-- Small fins -->
  <path d="M35 24 L40 20 L45 24 Z" fill="#FF6666" stroke="#000000" stroke-width="1"/>
  <path d="M35 40 L40 44 L45 40 Z" fill="#CC0000" stroke="#000000" stroke-width="1"/>
  <!-- Tail - Frame 4: tail curves up again -->
  <path d="M20 32 C15 28 8 26 4 28 C8 32 15 36 20 32" fill="#FF0000" stroke="#000000" stroke-width="1"/>
  <!-- Eye -->
  <circle cx="50" cy="32" r="3" fill="#FFFFFF" stroke="#000000" stroke-width="1"/>
  <circle cx="51" cy="32" r="1.5" fill="#000000"/>
</svg>