<svg viewBox="0 0 64 64" xmlns="http://www.w3.org/2000/svg">
  <!-- Container body -->
  <path d="M16 20 L16 52 Q16 56 20 56 L44 56 Q48 56 48 52 L48 20 Z" fill="#E85D4C"/>
  
  <!-- Container shine -->
  <path d="M18 22 L18 50 Q18 52 20 52 L24 52 L24 22 Z" fill="#F06D5C" opacity="0.6"/>
  
  <!-- Lid -->
  <rect x="14" y="14" width="36" height="8" rx="3" fill="#C94A3B"/>
  <rect x="26" y="10" width="12" height="6" rx="2" fill="#B83D2E"/>
  
  <!-- Label -->
  <rect x="20" y="28" width="24" height="18" rx="2" fill="#FFF5E6"/>
  
  <!-- Fish icon on label -->
  <ellipse cx="32" cy="36" rx="8" ry="5" fill="#4FC3F7"/>
  <polygon points="24,36 20,32 20,40" fill="#4FC3F7"/>
  <circle cx="37" cy="35" r="1.5" fill="#1E3A5F"/>
  
  <!-- Flakes coming out -->
  <ellipse cx="38" cy="8" rx="3" ry="1.5" fill="#FF8844" transform="rotate(20, 38, 8)"/>
  <ellipse cx="28" cy="6" rx="2.5" ry="1.2" fill="#FFAA44" transform="rotate(-15, 28, 6)"/>
  <ellipse cx="34" cy="4" rx="2" ry="1" fill="#FF9944" transform="rotate(10, 34, 4)"/>
</svg>

