<svg viewBox="0 0 64 64" xmlns="http://www.w3.org/2000/svg">
  <!-- Main sponge body -->
  <rect x="8" y="16" width="48" height="32" rx="6" fill="#FFE066"/>
  
  <!-- Sponge texture - holes -->
  <circle cx="16" cy="24" r="3" fill="#E6C84D"/>
  <circle cx="28" cy="22" r="2.5" fill="#E6C84D"/>
  <circle cx="40" cy="26" r="3.5" fill="#E6C84D"/>
  <circle cx="52" cy="23" r="2" fill="#E6C84D"/>
  
  <circle cx="20" cy="34" r="2" fill="#E6C84D"/>
  <circle cx="34" cy="32" r="3" fill="#E6C84D"/>
  <circle cx="48" cy="35" r="2.5" fill="#E6C84D"/>
  
  <circle cx="14" cy="42" r="2.5" fill="#E6C84D"/>
  <circle cx="26" cy="40" r="2" fill="#E6C84D"/>
  <circle cx="42" cy="42" r="3" fill="#E6C84D"/>
  <circle cx="54" cy="40" r="2" fill="#E6C84D"/>
  
  <!-- Top scrubby part -->
  <rect x="8" y="12" width="48" height="8" rx="4" fill="#5CB85C"/>
  <rect x="10" y="14" width="8" height="4" rx="2" fill="#4CAE4C"/>
  <rect x="22" y="14" width="8" height="4" rx="2" fill="#4CAE4C"/>
  <rect x="34" y="14" width="8" height="4" rx="2" fill="#4CAE4C"/>
  <rect x="46" y="14" width="8" height="4" rx="2" fill="#4CAE4C"/>
  
  <!-- Soap bubbles -->
  <circle cx="6" cy="10" r="4" fill="rgba(255,255,255,0.7)" stroke="#B8E0FF" stroke-width="1"/>
  <circle cx="58" cy="8" r="3" fill="rgba(255,255,255,0.6)" stroke="#B8E0FF" stroke-width="1"/>
  <circle cx="52" cy="52" r="5" fill="rgba(255,255,255,0.5)" stroke="#B8E0FF" stroke-width="1"/>
</svg>

