<svg viewBox="0 0 64 64" width="64" height="64" xmlns="http://www.w3.org/2000/svg">
  <!-- Sleek, torpedo-shaped body -->
  <path d="M15 32 C25 22 45 22 60 32 C45 42 25 42 15 32" fill="#FF0000" stroke="#000000" stroke-width="1"/>
  <!-- Sharp, triangular dorsal fin -->
  <path d="M35 22 L42 10 L45 22 Z" fill="#FF6666" stroke="#000000" stroke-width="1"/>
  <!-- Pointed pectoral fins -->
  <path d="M35 32 L45 25 L48 32" fill="#FF6666" stroke="#000000" stroke-width="1"/>
  <path d="M35 32 L45 39 L48 32" fill="#CC0000" stroke="#000000" stroke-width="1"/>
  <!-- Gill slits (5 of them) -->
  <path d="M48 27 L50 27 M46 29 L48 29 M44 31 L46 31 M42 33 L44 33 M40 35 L42 35" stroke="#CC0000" stroke-width="1.5"/>
  <!-- Distinctive tail fin - Frame 1: tail curves up -->
  <path d="M15 32 L8 22 L4 32 L8 42 L15 32" fill="#FF0000" stroke="#000000" stroke-width="1"/>
  <!-- Menacing eye -->
  <circle cx="55" cy="32" r="2" fill="#000000"/>
  <!-- Mouth with teeth -->
  <path d="M52 35 C54 35 56 34 58 34" fill="none" stroke="#000000" stroke-width="1"/>
  <path d="M53 35 L54 36 L55 35 L56 36 L57 35" fill="none" stroke="#000000" stroke-width="0.5"/>
</svg>