<svg viewBox="0 0 64 64" width="64" height="64" xmlns="http://www.w3.org/2000/svg">
  <!-- Streamlined body -->
  <path d="M15 32 C25 28 35 28 45 32 C50 34 55 34 60 32" fill="#FF0000" stroke="#000000" stroke-width="1"/>
  <!-- Distinctive bottlenose shape -->
  <path d="M45 32 C48 28 52 26 56 27 C59 28 60 30 60 32" fill="#FF6666" stroke="#000000" stroke-width="1"/>
  <!-- Tall, curved dorsal fin -->
  <path d="M35 28 C38 18 42 15 45 18 C42 21 38 25 35 28" fill="#FF6666" stroke="#000000" stroke-width="1"/>
  <!-- Graceful pectoral fins -->
  <path d="M35 32 C38 28 42 26 46 28" fill="#FF6666" stroke="#000000" stroke-width="1"/>
  <path d="M35 32 C38 36 42 38 46 36" fill="#CC0000" stroke="#000000" stroke-width="1"/>
  <!-- Powerful tail flukes -->
  <path d="M15 32 L8 29 L4 32 L8 35 L15 32" fill="#FF0000" stroke="#000000" stroke-width="1"/>
  <!-- Cheerful eye -->
  <circle cx="53" cy="30" r="2" fill="#FFFFFF" stroke="#000000" stroke-width="1"/>
  <circle cx="53.5" cy="30" r="1" fill="#000000"/>
  <!-- Blowhole -->
  <ellipse cx="50" cy="26" rx="1.5" ry="0.75" fill="#000000"/>
  <!-- Smile line -->
  <path d="M55 33 C57 33 59 32 60 32" fill="none" stroke="#000000" stroke-width="1"/>
  <!-- Shading details -->
  <path d="M35 30 C40 29 45 29 50 30" fill="none" stroke="#CC0000" stroke-width="0.5" opacity="0.5"/>
  <path d="M35 34 C40 35 45 35 50 34" fill="none" stroke="#FF6666" stroke-width="0.5" opacity="0.5"/>
</svg>